<?xml version="1.0" standalone="no"?>
<!DOCTYPE svg PUBLIC "-//W3C//DTD SVG 20010904//EN"
 "http://www.w3.org/TR/2001/REC-SVG-20010904/DTD/svg10.dtd">
<svg version="1.0" xmlns="http://www.w3.org/2000/svg"
 width="800.000000pt" height="800.000000pt" viewBox="0 0 800.000000 800.000000"
 preserveAspectRatio="xMidYMid meet">
<metadata>
Created by potrace 1.11, written by Peter Selinger 2001-2013
</metadata>
<g transform="translate(0.000000,800.000000) scale(0.100000,-0.100000)"
fill="#000000" stroke="none">
<path d="M3919 7116 c-2 -2 -20 -6 -40 -9 -94 -12 -228 -84 -310 -167 -111
-112 -168 -254 -165 -411 2 -52 8 -114 15 -138 29 -103 93 -208 168 -277 l34
-32 -29 -48 c-17 -27 -41 -67 -54 -90 -32 -57 -207 -356 -219 -374 -27 -45
-159 -272 -159 -275 0 -2 -13 -24 -30 -48 -16 -25 -30 -48 -30 -51 0 -3 -16
-30 -35 -60 -19 -30 -35 -57 -35 -60 0 -5 -44 -79 -78 -131 -7 -11 -15 -28
-18 -37 -4 -10 -9 -18 -13 -18 -4 0 -15 -20 -26 -45 -11 -25 -23 -45 -27 -45
-5 0 -8 -4 -8 -8 0 -5 -34 -65 -75 -134 -41 -69 -75 -131 -75 -137 0 -6 -3
-11 -8 -11 -4 0 -16 -17 -27 -37 -43 -84 -118 -193 -153 -223 -34 -30 -125
-79 -162 -88 -8 -2 -47 -6 -85 -9 -89 -7 -153 11 -257 72 -43 25 -82 45 -88
45 -5 0 -10 3 -10 8 0 4 -10 12 -23 18 -35 17 -471 272 -484 284 -7 5 -15 10
-18 10 -3 0 -33 17 -68 37 -34 21 -79 47 -99 57 -20 11 -46 27 -58 36 -20 15
-21 19 -7 51 65 156 45 357 -52 512 -62 101 -210 218 -299 238 -4 1 -18 5 -31
10 -43 17 -95 23 -181 23 -97 0 -137 -6 -197 -28 -24 -8 -43 -12 -43 -8 0 4
-4 2 -8 -4 -4 -6 -31 -24 -61 -40 -30 -16 -84 -59 -120 -95 -62 -61 -131 -169
-131 -203 0 -9 -4 -16 -8 -16 -5 0 -9 -6 -9 -12 0 -7 -5 -33 -11 -58 -17 -69
-8 -215 17 -292 12 -37 26 -70 31 -73 6 -3 10 -15 10 -26 0 -10 4 -19 8 -19 4
0 16 -15 27 -32 29 -51 118 -133 185 -172 34 -20 63 -36 65 -36 2 0 14 -4 27
-9 13 -5 25 -9 28 -10 3 0 26 -7 51 -14 26 -8 85 -14 138 -13 83 1 94 -1 104
-19 6 -11 12 -22 12 -25 1 -3 9 -22 18 -44 9 -21 17 -42 17 -47 0 -5 4 -17 9
-27 5 -9 24 -55 41 -102 18 -47 36 -94 41 -105 7 -18 39 -99 99 -260 11 -27
33 -86 50 -130 18 -44 40 -105 51 -135 11 -30 26 -68 33 -85 7 -16 19 -46 26
-65 6 -19 16 -44 21 -55 4 -11 31 -81 59 -155 54 -141 61 -159 78 -200 5 -14
29 -74 52 -135 23 -60 45 -119 50 -130 9 -22 21 -59 21 -62 0 -2 9 -24 20 -50
11 -27 36 -91 56 -143 19 -52 39 -104 44 -115 5 -11 29 -72 53 -135 l44 -115
2398 -3 c1912 -2 2399 0 2406 10 7 13 81 196 84 211 1 4 3 9 4 12 1 3 3 8 5
13 1 4 5 16 10 27 22 53 117 301 120 310 2 9 8 25 37 93 6 15 12 30 13 35 2 4
4 9 5 12 1 3 3 8 5 13 1 4 6 18 12 32 6 14 22 57 36 95 14 39 32 86 40 105 24
59 30 75 33 85 1 6 8 24 15 40 6 17 13 35 15 40 1 6 15 42 32 80 16 39 29 72
30 75 0 3 6 19 12 35 6 17 40 107 76 200 35 94 70 181 76 195 6 14 12 30 14
35 1 8 40 107 69 180 4 11 9 25 11 30 4 18 134 350 142 364 6 10 36 14 117 16
95 2 121 6 192 33 88 32 148 69 210 129 128 124 183 260 178 442 -3 94 -10
130 -43 201 -9 19 -17 37 -17 40 -2 16 -62 96 -102 138 -120 123 -270 183
-445 177 -112 -3 -146 -10 -222 -42 -82 -34 -132 -69 -199 -136 -50 -52 -124
-163 -131 -200 -2 -6 -6 -19 -9 -27 -32 -81 -31 -246 2 -350 11 -36 21 -66 21
-67 0 -4 -223 -133 -231 -133 -5 0 -9 -4 -9 -10 0 -5 -4 -10 -9 -10 -5 0 -113
-61 -240 -135 -127 -74 -236 -135 -241 -135 -6 0 -10 -4 -10 -8 0 -4 -25 -21
-56 -37 -30 -17 -63 -35 -72 -40 -52 -32 -72 -41 -117 -56 -129 -42 -281 -10
-387 81 -40 34 -78 90 -185 275 -39 66 -123 210 -188 320 -110 187 -136 231
-173 295 -7 14 -24 41 -35 62 -148 251 -203 344 -206 353 -2 5 -9 17 -16 25
-7 8 -24 35 -37 60 -14 25 -72 124 -128 220 -57 96 -109 186 -116 200 -13 23
-11 27 31 68 121 117 175 252 171 425 -2 57 -6 109 -10 116 -4 6 -9 22 -12 35
-4 26 -62 144 -79 162 -5 6 -23 28 -40 49 -56 72 -171 146 -284 182 -41 13
-242 28 -252 19z"/>
<path d="M1311 1637 c-43 -22 -92 -74 -98 -106 -12 -57 -14 -93 -12 -256 0
-33 0 -91 -1 -130 0 -38 2 -83 5 -100 3 -16 6 -36 7 -43 3 -25 88 -101 126
-111 25 -8 874 -11 2674 -11 2623 0 2638 0 2673 20 98 55 115 96 115 285 0 80
1 255 2 270 1 20 -13 78 -24 99 -18 36 -78 85 -117 96 -24 7 -920 10 -2671 10
l-2635 0 -44 -23z"/>
</g>
</svg>
